<svg xmlns="http://www.w3.org/2000/svg" width="1280" height="700" viewBox="0 0 1280 700">
<rect width="100%" height="100%" fill="#ffffff"/>
<text x="60" y="60" fill="#242a31" font-family="DejaVu Sans, sans-serif" font-size="32" font-weight="600">SPSC throughput by ring size</text>
<text x="60" y="92" fill="#69727d" font-family="DejaVu Sans, sans-serif" font-size="18">million items / second vs ring capacity</text>
<line x1="120" y1="590.0" x2="1230" y2="590.0" stroke="#dfe4ea" stroke-width="1"/>
<text x="106" y="595.0" text-anchor="end" fill="#69727d" font-family="DejaVu Sans Mono, monospace" font-size="14">99.265</text>
<line x1="120" y1="496.0" x2="1230" y2="496.0" stroke="#dfe4ea" stroke-width="1"/>
<text x="106" y="501.0" text-anchor="end" fill="#69727d" font-family="DejaVu Sans Mono, monospace" font-size="14">100.693</text>
<line x1="120" y1="402.0" x2="1230" y2="402.0" stroke="#dfe4ea" stroke-width="1"/>
<text x="106" y="407.0" text-anchor="end" fill="#69727d" font-family="DejaVu Sans Mono, monospace" font-size="14">102.121</text>
<line x1="120" y1="308.0" x2="1230" y2="308.0" stroke="#dfe4ea" stroke-width="1"/>
<text x="106" y="313.0" text-anchor="end" fill="#69727d" font-family="DejaVu Sans Mono, monospace" font-size="14">103.549</text>
<line x1="120" y1="214.0" x2="1230" y2="214.0" stroke="#dfe4ea" stroke-width="1"/>
<text x="106" y="219.0" text-anchor="end" fill="#69727d" font-family="DejaVu Sans Mono, monospace" font-size="14">104.976</text>
<line x1="120" y1="120.0" x2="1230" y2="120.0" stroke="#dfe4ea" stroke-width="1"/>
<text x="106" y="125.0" text-anchor="end" fill="#69727d" font-family="DejaVu Sans Mono, monospace" font-size="14">106.404</text>
<line x1="120.0" y1="120" x2="120.0" y2="590" stroke="#dfe4ea" stroke-width="1"/>
<text x="120.0" y="620" text-anchor="middle" fill="#69727d" font-family="DejaVu Sans Mono, monospace" font-size="14">1024</text>
<line x1="172.9" y1="120" x2="172.9" y2="590" stroke="#dfe4ea" stroke-width="1"/>
<text x="172.9" y="620" text-anchor="middle" fill="#69727d" font-family="DejaVu Sans Mono, monospace" font-size="14">4096</text>
<line x1="1230.0" y1="120" x2="1230.0" y2="590" stroke="#dfe4ea" stroke-width="1"/>
<text x="1230.0" y="620" text-anchor="middle" fill="#69727d" font-family="DejaVu Sans Mono, monospace" font-size="14">65536</text>
<text x="675.0" y="655" text-anchor="middle" fill="#242a31" font-family="DejaVu Sans, sans-serif" font-size="17">ring capacity</text>
<text x="28" y="355.0" transform="rotate(-90 28 355.0)" text-anchor="middle" fill="#242a31" font-family="DejaVu Sans, sans-serif" font-size="17">million items / second</text>
<polyline fill="none" stroke="#72a8ff" stroke-width="5" points="120.0,557.6 172.9,310.8 1230.0,152.4"/>
<circle cx="120.0" cy="557.6" r="7" fill="#72a8ff"/>
<circle cx="172.9" cy="310.8" r="7" fill="#72a8ff"/>
<circle cx="1230.0" cy="152.4" r="7" fill="#72a8ff"/>
<line x1="900" y1="76" x2="926" y2="76" stroke="#72a8ff" stroke-width="5"/>
<text x="936" y="82" fill="#242a31" font-family="DejaVu Sans, sans-serif" font-size="16">SPSC</text>
<text x="60" y="682" fill="#7a828b" font-family="DejaVu Sans Mono, monospace" font-size="13">Source: spsc_matrix.csv; 2 repeats per capacity</text>
</svg>